# xmcd
#
# Track frame offsets: 
#        150
#        31855
#        58884
#        96165
#        123847
#        183111
#        249718
#
# Disc length: 3739 seconds
#
# Revision: 0
# Processed by: cddbd v1.5.2PL0 Copyright (c) Steve Scherf et al.
# Submitted via: ExactAudioCopy v0.95b4
#
DISCID=560e9907
DTITLE=Eric Clapton - 1975-06-25 - Splendor - CD2
DYEAR=1975
DGENRE=Blues
TTITLE0=Teach Me To Be Your Woman
TTITLE1=Bell Bottom Blues
TTITLE2=Badge
TTITLE3=Knockin' On Heaven's Door
TTITLE4=Tell The Truth
TTITLE5=Eyesight To The Blind
TTITLE6=Why Does Love Got To Be So Sad
EXTD=
EXTT0=
EXTT1=
EXTT2=
EXTT3=
EXTT4=
EXTT5=
EXTT6=
PLAYORDER=
